<?xml version="1.0" encoding="UTF-8"?>
<svg width="30px" height="22px" viewBox="0 0 30 22" version="1.1" xmlns="http://www.w3.org/2000/svg" xmlns:xlink="http://www.w3.org/1999/xlink">
    <title>discord-icon</title>
    <g id="Page-1" stroke="none" stroke-width="1" fill="none" fill-rule="evenodd">
        <g id="Landing-Desktop" transform="translate(-943.000000, -52.000000)" fill="#FFFFFF" fill-rule="nonzero">
            <g id="navbar-top" transform="translate(51.000000, 35.000000)">
                <g id="Group-4" transform="translate(847.000000, 16.004731)">
                    <g id="discord" transform="translate(45.000000, 0.995269)">
                        <path d="M25.4057143,2.67428571 C25.4057143,2.67428571 22.3396457,0.274114286 18.72,0 L18.3937371,0.653194286 C21.6657257,1.45481143 23.1673371,2.60074286 24.7371429,4.01142857 C22.0314343,2.63016 19.3618286,1.33714286 14.7085714,1.33714286 C10.0553143,1.33714286 7.38570857,2.63016 4.68,4.01142857 C6.24980571,2.60074286 8.03622857,1.32644571 11.0234057,0.653194286 L10.6971429,0 C6.89965714,0.357685714 4.01142857,2.67428571 4.01142857,2.67428571 C4.01142857,2.67428571 0.587674286,7.63909714 0,17.3828571 C3.44982857,21.3628629 8.69142857,21.3942857 8.69142857,21.3942857 L9.78788571,19.9341257 C7.92658286,19.2869486 5.82726857,18.1323257 4.01142857,16.0457143 C6.17626286,17.6837143 9.44357143,19.3885714 14.7085714,19.3885714 C19.9735714,19.3885714 23.24088,17.6837143 25.4057143,16.0457143 C23.5905429,18.1323257 21.4912286,19.2869486 19.6292571,19.9341257 L20.7257143,21.3942857 C20.7257143,21.3942857 25.9673143,21.3628629 29.4171429,17.3828571 C28.8294686,7.63909714 25.4057143,2.67428571 25.4057143,2.67428571 Z M10.3628571,14.7085714 C9.06984,14.7085714 8.02285714,13.5118286 8.02285714,12.0342857 C8.02285714,10.5567429 9.06984,9.36 10.3628571,9.36 C11.6558743,9.36 12.7028571,10.5567429 12.7028571,12.0342857 C12.7028571,13.5118286 11.6558743,14.7085714 10.3628571,14.7085714 Z M19.0542857,14.7085714 C17.7612686,14.7085714 16.7142857,13.5118286 16.7142857,12.0342857 C16.7142857,10.5567429 17.7612686,9.36 19.0542857,9.36 C20.3473029,9.36 21.3942857,10.5567429 21.3942857,12.0342857 C21.3942857,13.5118286 20.3473029,14.7085714 19.0542857,14.7085714 Z" id="discord-icon"></path>
                    </g>
                </g>
            </g>
        </g>
    </g>
</svg>