<?xml version="1.0" encoding="UTF-8"?>
<svg width="20px" height="20px" viewBox="0 0 20 20" version="1.1" xmlns="http://www.w3.org/2000/svg" xmlns:xlink="http://www.w3.org/1999/xlink">
    <title>Close</title>
    <g id="Page-1" stroke="none" stroke-width="1" fill="none" fill-rule="evenodd">
        <g id="Landing-Desktop" transform="translate(-959.000000, -334.000000)" stroke="#FFFFFF" stroke-width="1.5">
            <g id="Close" transform="translate(960.000000, 335.000000)">
                <path d="M0.3528825,5.9504325 C1.0043725,3.1730125 3.1730125,1.0043725 5.9504325,0.3528825 C7.9563025,-0.1176275 10.0437025,-0.1176275 12.0496025,0.3528825 C14.8270025,1.0043725 16.9956025,3.1730125 17.6471025,5.9504425 C18.1176025,7.9563025 18.1176025,10.0437025 17.6471025,12.0496025 C16.9956025,14.8270025 14.8270025,16.9956025 12.0496025,17.6471025 C10.0437025,18.1176025 7.9563025,18.1176025 5.9504425,17.6471025 C3.1730125,16.9956025 1.0043725,14.8270025 0.3528825,12.0496025 C-0.1176275,10.0437025 -0.1176275,7.9563025 0.3528825,5.9504325 Z" id="Path" fill-opacity="0.15" fill="#FFFFFF" fill-rule="nonzero"></path>
                <path d="M10.7678025,7.2322025 L7.2322025,10.7678025 M10.7678025,10.7678025 L7.2322025,7.2322025" id="Shape" stroke-linecap="round"></path>
            </g>
        </g>
    </g>
</svg>