<?xml version="1.0" encoding="UTF-8"?>
<svg width="20px" height="20px" viewBox="0 0 20 20" version="1.1" xmlns="http://www.w3.org/2000/svg" xmlns:xlink="http://www.w3.org/1999/xlink">
    <title>Menu</title>
    <g id="Page-1" stroke="none" stroke-width="1" fill="none" fill-rule="evenodd" fill-opacity="0.15">
        <g id="Landing-Desktop" transform="translate(-985.000000, -334.000000)" fill="#FFFFFF" fill-rule="nonzero" stroke="#FFFFFF" stroke-width="1.5">
            <g id="Menu" transform="translate(986.000000, 335.000000)">
                <path d="M0.153095326,2.17691095 C0.388643475,1.17272377 1.17271725,0.388650877 2.17690555,0.153102991 C3.04715471,-0.0510343304 3.95283745,-0.0510343304 4.82308661,0.153102991 C5.82727492,0.388650877 6.61134869,1.17272377 6.84689684,2.17691095 C7.05103439,3.04715914 7.05103439,3.95284086 6.84689684,4.82308905 C6.61134869,5.82727623 5.82727492,6.61134912 4.82308661,6.84689701 C3.95283745,7.05103433 3.04715471,7.05103433 2.17690555,6.84689701 C1.17271725,6.61134912 0.388643475,5.82727623 0.153095326,4.82308905 C-0.0510317752,3.95284086 -0.0510317752,3.04715914 0.153095326,2.17691095 Z" id="Path"></path>
                <path d="M0.153095326,13.1768971 C0.388643475,12.1727099 1.17271725,11.388587 2.17690555,11.1530576 C3.04715471,10.9489808 3.95283745,10.9489808 4.82308661,11.1530576 C5.82727492,11.388587 6.61134869,12.1727099 6.84689684,13.1768971 C7.05103439,14.0471231 7.05103439,14.9528769 6.84689684,15.8231029 C6.61134869,16.8272901 5.82727492,17.611413 4.82308661,17.8469424 C3.95283745,18.0510192 3.04715471,18.0510192 2.17690555,17.8469424 C1.17271725,17.611413 0.388643475,16.8272901 0.153095326,15.8231029 C-0.0510317752,14.9528769 -0.0510317752,14.0471231 0.153095326,13.1768971 Z" id="Path"></path>
                <path d="M11.1530576,2.17691095 C11.388587,1.17272377 12.1727099,0.388650877 13.1768971,0.153102991 C14.0471231,-0.0510343304 14.9528769,-0.0510343304 15.8231029,0.153102991 C16.8272901,0.388650877 17.611413,1.17272377 17.8469424,2.17691095 C18.0510192,3.04715914 18.0510192,3.95284086 17.8469424,4.82308905 C17.611413,5.82727623 16.8272901,6.61134912 15.8231029,6.84689701 C14.9528769,7.05103433 14.0471231,7.05103433 13.1768971,6.84689701 C12.1727099,6.61134912 11.388587,5.82727623 11.1530576,4.82308905 C10.9489808,3.95284086 10.9489808,3.04715914 11.1530576,2.17691095 Z" id="Path"></path>
                <path d="M11.1530576,13.1768971 C11.388587,12.1727099 12.1727099,11.388587 13.1768971,11.1530576 C14.0471231,10.9489808 14.9528769,10.9489808 15.8231029,11.1530576 C16.8272901,11.388587 17.611413,12.1727099 17.8469424,13.1768971 C18.0510192,14.0471231 18.0510192,14.9528769 17.8469424,15.8231029 C17.611413,16.8272901 16.8272901,17.611413 15.8231029,17.8469424 C14.9528769,18.0510192 14.0471231,18.0510192 13.1768971,17.8469424 C12.1727099,17.611413 11.388587,16.8272901 11.1530576,15.8231029 C10.9489808,14.9528769 10.9489808,14.0471231 11.1530576,13.1768971 Z" id="Path"></path>
            </g>
        </g>
    </g>
</svg>